<?xml version="1.0" encoding="UTF-8"?>
<svg version="1.1" xmlns="http://www.w3.org/2000/svg" width="1024" height="1024">
<path d="M0 0 C337.92 0 675.84 0 1024 0 C1024 337.92 1024 675.84 1024 1024 C686.08 1024 348.16 1024 0 1024 C0 686.08 0 348.16 0 0 Z " fill="#FBFBFB" transform="translate(0,0)"/>
<path d="M0 0 C38.28 0 76.56 0 116 0 C116.02578125 14.0559375 116.0515625 28.111875 116.078125 42.59375 C116.10328639 51.48959734 116.12945045 60.38542293 116.16015625 69.28125 C116.20872455 83.40624855 116.2531571 97.53117474 116.27099609 111.65625 C116.28400663 121.94318748 116.31095614 132.22997807 116.35461307 142.51683283 C116.37724117 147.96318481 116.39290986 153.40935551 116.39188385 158.85575867 C116.39113805 163.98415921 116.40905712 169.11215882 116.44116783 174.24045563 C116.44967264 176.12054363 116.45141282 178.00067658 116.44580269 179.88077545 C116.43914997 182.45333186 116.45711302 185.02461738 116.48101807 187.5970459 C116.46937744 188.7060306 116.46937744 188.7060306 116.45750165 189.83741903 C116.5620206 196.21646179 118.39953903 201.45982316 123.02195263 205.97507954 C127.83733122 207.63233325 132.59268552 207.42065607 137.64875793 207.39872742 C139.43763673 207.40869766 139.43763673 207.40869766 141.26265448 207.41886932 C144.56937536 207.43429603 147.87561556 207.43633717 151.18233812 207.43273985 C154.74946434 207.43211624 158.31651507 207.4487338 161.88360596 207.46325684 C168.06263092 207.4860546 174.24159947 207.49792997 180.42066383 207.50238609 C189.35453671 207.50884468 198.28830755 207.53177691 207.22213932 207.55872939 C221.71668205 207.60201062 236.21122048 207.63196974 250.70581055 207.65356445 C264.78591018 207.67457014 278.8659745 207.70187585 292.94604492 207.73754883 C294.26117501 207.74086909 294.26117501 207.74086909 295.60287338 207.74425644 C302.45966587 207.76161676 309.3164574 207.77934247 316.17324865 207.79718363 C349.78214385 207.88453941 383.39102324 207.94002459 417 208 C417 139.36 417 70.72 417 0 C455.28 0 493.56 0 533 0 C533 187.44 533 374.88 533 568 C494.72 568 456.44 568 417 568 C416.96261719 551.69464844 416.92523437 535.38929688 416.88671875 518.58984375 C416.85645252 508.27668412 416.82543596 497.96353584 416.79101562 487.65039062 C416.77298296 482.23348049 416.75510181 476.81656992 416.73754883 471.3996582 C416.73534114 470.7207462 416.73313345 470.0418342 416.73085886 469.34234911 C416.69549876 458.384992 416.67063482 447.42763496 416.64965298 436.47024196 C416.62788259 425.22315051 416.59459823 413.9761329 416.55129844 402.72910029 C416.52734519 396.41258266 416.50863013 390.09614691 416.50238609 383.77958488 C416.49634484 377.83458803 416.47637937 371.88980076 416.44572449 365.94488144 C416.43692893 363.76282137 416.43322481 361.58073393 416.43499184 359.39865685 C416.43664308 356.41872179 416.41995748 353.43942675 416.39872742 350.45957947 C416.40357499 349.59672409 416.40842257 348.73386872 416.41341704 347.84486622 C416.35048187 342.48963873 415.53311103 338.74720882 413 334 C408.95219815 330.15458824 405.83661869 328.87678477 400.32160473 328.86857224 C399.3544312 328.86473109 398.38725767 328.86088995 397.39077586 328.8569324 C396.32581442 328.85779888 395.26085299 328.85866537 394.16362 328.85955811 C393.03414611 328.85658698 391.90467223 328.85361586 390.74097186 328.8505547 C386.93627528 328.84184647 383.13161008 328.84035766 379.3269043 328.83886719 C376.60716566 328.83477944 373.88743036 328.82923687 371.16769409 328.82382202 C363.76481405 328.81023525 356.36193942 328.80421348 348.95904899 328.79981136 C344.33755932 328.79704959 339.71607176 328.79281236 335.09458351 328.78830719 C322.3015681 328.7761142 309.50855436 328.76581486 296.71553326 328.7624321 C295.89661968 328.76221253 295.07770609 328.76199297 294.23397695 328.76176675 C293.41309341 328.76154847 292.59220988 328.76133019 291.74645108 328.7611053 C290.08300189 328.76066183 288.4195527 328.76021527 286.75610352 328.75976562 C285.51840863 328.75943348 285.51840863 328.75943348 284.2557098 328.75909463 C270.88391877 328.75514612 257.51218222 328.73769066 244.14041223 328.7144061 C230.41515549 328.69069872 216.6899261 328.67823053 202.96464854 328.67706418 C195.25705392 328.67614709 187.54953027 328.67038616 179.84195518 328.65224457 C173.27908952 328.63685186 166.71631678 328.63171819 160.1534365 328.63998267 C156.80479436 328.64389217 153.45649171 328.64131672 150.10784721 328.62892532 C146.4775128 328.6162775 142.84766153 328.62204404 139.21733093 328.63250732 C138.15906166 328.62445092 137.10079239 328.61639452 136.01045436 328.60809398 C130.60842509 328.64460541 126.61498577 328.85616803 122 332 C117.36837521 338.00859432 116.85003158 342.60242585 116.84178162 349.9785614 C116.83684364 350.90809106 116.83190566 351.83762072 116.82681805 352.79531795 C116.81140881 355.92303238 116.80307315 359.05072624 116.79467773 362.1784668 C116.7851019 364.41533592 116.775092 366.65220322 116.76467896 368.8890686 C116.73759186 374.97339604 116.7166029 381.05773126 116.69667697 387.14208579 C116.67484086 393.49625306 116.64744057 399.85039623 116.62062073 406.20454407 C116.57634289 416.87341303 116.53551308 427.54228963 116.49731445 438.21118164 C116.45795818 449.2007748 116.41652032 460.19035687 116.37231445 471.17993164 C116.36956495 471.86410083 116.36681544 472.54827003 116.36398262 473.25317162 C116.34004823 479.20434627 116.31595597 485.15552027 116.29184818 491.10669422 C116.18822325 516.73777481 116.09496748 542.36888249 116 568 C77.72 568 39.44 568 0 568 C0 380.56 0 193.12 0 0 Z " fill="#151515" transform="translate(246,228)"/>
<path d="M0 0 C38.28 0 76.56 0 116 0 C116 65.01 116 130.02 116 197 C115.67 197 115.34 197 115 197 C115 132.32 115 67.64 115 1 C77.71 1 40.42 1 2 1 C2 187.45 2 373.9 2 566 C39.29 566 76.58 566 115 566 C114.96519531 541.45496094 114.96519531 541.45496094 114.9296875 516.4140625 C114.91947442 506.07812437 114.9097644 495.74218988 114.90234375 485.40625 C114.89841621 479.97916655 114.89438676 474.55208321 114.89013672 469.125 C114.88960922 468.44476926 114.88908172 467.76453851 114.88853824 467.06369472 C114.87983098 456.0706114 114.8640586 445.07754892 114.84569441 434.08447798 C114.82701538 422.80920652 114.8160373 411.53394551 114.81182301 400.25865781 C114.809209 393.92272926 114.80303858 387.58684803 114.78853989 381.2509346 C114.77501756 375.29371969 114.77076646 369.33657183 114.77378464 363.37934303 C114.77323207 361.18710148 114.76922293 358.9948578 114.76158905 356.80262947 C114.75171143 353.82110481 114.75400467 350.83983687 114.75949097 347.85830688 C114.75366528 346.9808873 114.7478396 346.10346772 114.74183738 345.19945967 C114.77175758 339.22824242 114.77175758 339.22824242 117 337 C116.67 413.23 116.34 489.46 116 568 C77.72 568 39.44 568 0 568 C0 380.56 0 193.12 0 0 Z " fill="#030303" transform="translate(246,228)"/>
<path d="M0 0 C38.28 0 76.56 0 116 0 C116 187.44 116 374.88 116 568 C98.51 567.67 81.02 567.34 63 567 C63 566.67 63 566.34 63 566 C79.83 566 96.66 566 114 566 C114 379.55 114 193.1 114 1 C77.04 1 40.08 1 2 1 C2 69.31 2 137.62 2 208 C1.67 208 1.34 208 1 208 C0.67 139.36 0.34 70.72 0 0 Z " fill="#2A2A2A" transform="translate(663,228)"/>
</svg>
